<svg xmlns="http://www.w3.org/2000/svg" width="24" height="24" viewBox="0 0 24 24">
  <g id="email-icon" transform="translate(-4 -4.647)">
    <g id="Group_501" data-name="Group 501">
      <rect id="Rectangle_677" data-name="Rectangle 677" width="24" height="24" transform="translate(4 4.647)" fill="none"/>
      <path id="Icon_simple-email" data-name="Icon simple-email" d="M17.855,8.243a9.211,9.211,0,0,1-.3,2A5.781,5.781,0,0,1,16.782,12a4.1,4.1,0,0,1-1.317,1.247,3.717,3.717,0,0,1-1.923.474,2.788,2.788,0,0,1-1.391-.34,2.382,2.382,0,0,1-.94-.963,2.979,2.979,0,0,1-2.52,1.266,2.563,2.563,0,0,1-2.2-1.183,3.873,3.873,0,0,1-.547-1.371,5.911,5.911,0,0,1-.071-1.788,8.306,8.306,0,0,1,.545-2.19A5.952,5.952,0,0,1,7.424,5.47,4.259,4.259,0,0,1,8.808,4.4a3.862,3.862,0,0,1,1.683-.374,5.233,5.233,0,0,1,1.007.086,4.121,4.121,0,0,1,.781.234,4.225,4.225,0,0,1,.647.342c.2.127.4.259.594.393l-.489,5.625a1.87,1.87,0,0,0,.015.658.921.921,0,0,0,.2.406.723.723,0,0,0,.326.212,1.21,1.21,0,0,0,1.145-.225,2.441,2.441,0,0,0,.614-.781A5.032,5.032,0,0,0,15.745,9.8a8.056,8.056,0,0,0,.181-1.462,9.344,9.344,0,0,0-.23-2.732,5.431,5.431,0,0,0-1.011-2.114,4.7,4.7,0,0,0-1.813-1.362,6.579,6.579,0,0,0-2.641-.483,5.831,5.831,0,0,0-2.612.569A5.992,5.992,0,0,0,5.635,3.8a7.574,7.574,0,0,0-1.3,2.374,10.7,10.7,0,0,0-.547,2.958,9.835,9.835,0,0,0,.279,3.018,5.451,5.451,0,0,0,1.1,2.163,4.6,4.6,0,0,0,1.868,1.3,7.167,7.167,0,0,0,2.578.431,8.831,8.831,0,0,0,1.692-.182c.279-.056.544-.123.8-.2a5.989,5.989,0,0,0,.685-.246l.354,1.592a3.928,3.928,0,0,1-.767.379,7.381,7.381,0,0,1-.906.262,8.843,8.843,0,0,1-1.893.212,9.927,9.927,0,0,1-3.451-.556,6.351,6.351,0,0,1-2.516-1.654A6.947,6.947,0,0,1,2.1,12.92,11.65,11.65,0,0,1,1.68,9.129,11.563,11.563,0,0,1,2.405,5.49,9,9,0,0,1,4.153,2.6,7.964,7.964,0,0,1,6.819.692,8.348,8.348,0,0,1,10.272,0a8.715,8.715,0,0,1,3.346.6,6.508,6.508,0,0,1,2.415,1.685,6.916,6.916,0,0,1,1.433,2.6A9.956,9.956,0,0,1,17.855,8.243ZM8.27,9.337a3.8,3.8,0,0,0,.2,1.883,1.01,1.01,0,0,0,.971.636,1.073,1.073,0,0,0,.333-.061,1.186,1.186,0,0,0,.383-.23,2.043,2.043,0,0,0,.388-.469A3.6,3.6,0,0,0,10.9,10.3l.382-4.371a2.28,2.28,0,0,0-.594-.078,2.053,2.053,0,0,0-.988.227,1.955,1.955,0,0,0-.7.665,3.906,3.906,0,0,0-.464,1.094,9.278,9.278,0,0,0-.263,1.5Z" transform="translate(6.716 8.073)" fill="#486dc7"/>
    </g>
  </g>
</svg>
