<svg xmlns="http://www.w3.org/2000/svg" width="23" height="16.098" viewBox="0 0 23 16.098">
  <path id="Icon_awesome-users-cog" data-name="Icon awesome-users-cog" d="M21.942,13.37a4.216,4.216,0,0,0,0-1.531l.927-.536A.26.26,0,0,0,22.988,11a5.394,5.394,0,0,0-1.193-2.063.262.262,0,0,0-.323-.05l-.927.536a4.22,4.22,0,0,0-1.326-.766V7.584a.262.262,0,0,0-.2-.255,5.423,5.423,0,0,0-2.379,0,.262.262,0,0,0-.2.255V8.655A4.22,4.22,0,0,0,15.1,9.42l-.927-.536a.263.263,0,0,0-.323.05A5.394,5.394,0,0,0,12.659,11a.265.265,0,0,0,.119.306l.927.536a4.216,4.216,0,0,0,0,1.531l-.927.536a.26.26,0,0,0-.119.306,5.421,5.421,0,0,0,1.193,2.063.262.262,0,0,0,.323.05l.927-.536a4.219,4.219,0,0,0,1.326.766v1.071a.262.262,0,0,0,.2.255,5.423,5.423,0,0,0,2.379,0,.262.262,0,0,0,.2-.255V16.554a4.22,4.22,0,0,0,1.326-.766l.927.536a.263.263,0,0,0,.323-.05,5.394,5.394,0,0,0,1.193-2.063.265.265,0,0,0-.119-.306l-.927-.536Zm-4.115.978A1.743,1.743,0,1,1,19.57,12.6,1.745,1.745,0,0,1,17.827,14.348ZM3.45,9.154a2.3,2.3,0,1,0-2.3-2.3A2.3,2.3,0,0,0,3.45,9.154ZM11.5,10.3c.068,0,.133-.018.2-.022a6.626,6.626,0,0,1,1.3-2.128A1.417,1.417,0,0,1,14.046,7.7a1.381,1.381,0,0,1,.7.19l.284.165c.029-.018.058-.032.086-.05a3.978,3.978,0,0,0,.4-1.725A4.024,4.024,0,1,0,11.5,10.3Zm3.781,6.991c-.083-.043-.165-.093-.244-.14a1.776,1.776,0,0,1-.988.352,1.429,1.429,0,0,1-1.039-.453,6.554,6.554,0,0,1-1.445-2.5,1.534,1.534,0,0,1,.927-1.808q-.005-.14,0-.28l-.284-.165a1.464,1.464,0,0,1-.352-.291c-.119.007-.234.022-.352.022a5.674,5.674,0,0,1-2.462-.575h-.3A4.142,4.142,0,0,0,4.6,15.595V16.63a1.726,1.726,0,0,0,1.725,1.725h9.179a1.384,1.384,0,0,1-.223-.73v-.331ZM6.221,10.973A2.293,2.293,0,0,0,4.6,10.3H2.3A2.3,2.3,0,0,0,0,12.6v1.15A1.149,1.149,0,0,0,1.15,14.9H3.519a5.27,5.27,0,0,1,2.7-3.932Z" transform="translate(0 -2.257)" fill="#9a9a9a"/>
</svg>
