<svg id="Icon_ionic-ios-attach" data-name="Icon ionic-ios-attach" xmlns="http://www.w3.org/2000/svg" width="10.31" height="20" viewBox="0 0 10.31 20">
  <path id="Icon_ionic-ios-attach-2" data-name="Icon ionic-ios-attach" d="M19.49,8.012a.7.7,0,0,0-.7.7v8.677a3.6,3.6,0,0,1-.982,2.459A3.533,3.533,0,0,1,15.335,20.9h-.607a3.469,3.469,0,0,1-2.446-1.1,3.583,3.583,0,0,1-1.067-2.464V6.146a2.426,2.426,0,0,1,.772-1.763,2.656,2.656,0,0,1,1.83-.728,2.484,2.484,0,0,1,2.508,2.491V16.6a1.411,1.411,0,0,1-1.294,1.437A1.372,1.372,0,0,1,13.773,16.6V10.637a.7.7,0,1,0-1.393,0V16.6a2.678,2.678,0,0,0,4.557,2.008,2.819,2.819,0,0,0,.781-2.008V6.146A3.9,3.9,0,0,0,13.8,2.25a3.917,3.917,0,0,0-2.776,1.138A3.851,3.851,0,0,0,9.872,6.151V17.345a4.988,4.988,0,0,0,1.455,3.481,4.824,4.824,0,0,0,3.4,1.424h.607a4.875,4.875,0,0,0,3.388-1.433,5.014,5.014,0,0,0,1.067-1.544,4.673,4.673,0,0,0,.4-1.879V8.708A.691.691,0,0,0,19.49,8.012Z" transform="translate(-9.872 -2.25)" fill="#486dc7"/>
</svg>
