<svg xmlns="http://www.w3.org/2000/svg" width="32.918" height="32.918" viewBox="0 0 32.918 32.918">
  <g id="available" transform="translate(0.403 0.403)">
    <path id="Path_62" data-name="Path 62" d="M16.459,0A16.459,16.459,0,0,1,32.918,16.459c0,8.054-5.785,14.757-14.264,16.314a13.6,13.6,0,0,1-2.2.145A16.459,16.459,0,0,1,16.459,0Z" transform="translate(-0.403 -0.403)" fill="#cffff1"/>
    <path id="Path_62_-_Outline" data-name="Path 62 - Outline" d="M16.459,1.372a15.087,15.087,0,0,0,0,30.175,16.151,16.151,0,0,0,1.834-.1l.015-.005.1-.018a16.352,16.352,0,0,0,9.525-5.273,14.551,14.551,0,0,0,3.615-9.692A15.1,15.1,0,0,0,16.459,1.372m0-1.372A16.459,16.459,0,0,1,32.918,16.459c0,8.054-5.785,14.757-14.264,16.314a13.6,13.6,0,0,1-2.2.145A16.459,16.459,0,0,1,16.459,0Z" transform="translate(-0.403 -0.403)" fill="#42ba96"/>
    <path id="Icon_awesome-check" data-name="Icon awesome-check" d="M5.575,16.577.24,11.242a.821.821,0,0,1,0-1.161L1.4,8.921a.821.821,0,0,1,1.161,0l3.594,3.593,7.7-7.7a.821.821,0,0,1,1.161,0l1.161,1.161a.821.821,0,0,1,0,1.161L6.735,16.577A.821.821,0,0,1,5.575,16.577Z" transform="translate(6.844 5.337)" fill="#42ba96"/>
  </g>
</svg>
