<svg xmlns="http://www.w3.org/2000/svg" width="32.918" height="32.919" viewBox="0 0 32.918 32.919">
  <g id="busy" transform="translate(0.403 0.403)">
    <path id="Path_62" data-name="Path 62" d="M16.459,0A16.459,16.459,0,0,1,32.918,16.459c0,8.054-5.785,14.757-14.264,16.314a13.6,13.6,0,0,1-2.2.145A16.459,16.459,0,0,1,16.459,0Z" transform="translate(-0.403 -0.403)" fill="#ffd9d9"/>
    <g id="Group_552" data-name="Group 552">
      <path id="Path_62_-_Outline" data-name="Path 62 - Outline" d="M16.459,1.372a15.087,15.087,0,0,0,0,30.175,16.151,16.151,0,0,0,1.834-.1l.015-.005.1-.018a16.352,16.352,0,0,0,9.525-5.273,14.551,14.551,0,0,0,3.615-9.692A15.1,15.1,0,0,0,16.459,1.372m0-1.372A16.459,16.459,0,0,1,32.918,16.459c0,8.054-5.785,14.757-14.264,16.314a13.6,13.6,0,0,1-2.2.145A16.459,16.459,0,0,1,16.459,0Z" transform="translate(-0.403 -0.402)" fill="#bb1b1b"/>
      <path id="Line_31" data-name="Line 31" d="M21.277,23.691l-22-23L.723-.691l22,23Z" transform="translate(4.652 4.598)" fill="#bb1b1b"/>
    </g>
  </g>
</svg>
