<svg xmlns="http://www.w3.org/2000/svg" width="16" height="16" viewBox="0 0 16 16">
  <path id="Icon_ionic-md-archive" data-name="Icon ionic-md-archive" d="M18.975,5.375,17.73,3.864a1.264,1.264,0,0,0-1.022-.489H6.042a1.264,1.264,0,0,0-1.022.489L3.775,5.375a1.547,1.547,0,0,0-.4,1.111V17.6a1.783,1.783,0,0,0,1.778,1.778H17.6A1.783,1.783,0,0,0,19.375,17.6V6.486A1.547,1.547,0,0,0,18.975,5.375Zm-7.6,10.889L6.486,11.375H9.6V9.6h3.556v1.778h3.111ZM5.242,5.153l.711-.889H16.619l.845.889Z" transform="translate(-3.375 -3.375)" fill="#f6f6f6"/>
</svg>
