<svg id="Icon_feather-search" data-name="Icon feather-search" xmlns="http://www.w3.org/2000/svg" width="15.32" height="15.32" viewBox="0 0 15.32 15.32">
  <path id="Path_22" data-name="Path 22" d="M9.944,3a6.944,6.944,0,1,1-4.91,2.034A6.9,6.9,0,0,1,9.944,3Zm0,12.345a5.4,5.4,0,1,0-5.4-5.4A5.407,5.407,0,0,0,9.944,15.345Z" transform="translate(-3 -3)" fill="#f6f6f6"/>
  <path id="Path_23" data-name="Path 23" d="M27.305,28.021a.714.714,0,0,1-.506-.21L23.685,24.7A.716.716,0,1,1,24.7,23.685L27.811,26.8a.716.716,0,0,1-.506,1.222Z" transform="translate(-12.701 -12.701)" fill="#f6f6f6"/>
</svg>
