<svg xmlns="http://www.w3.org/2000/svg" width="18.99" height="18.995" viewBox="0 0 18.99 18.995">
  <path id="Icon_ionic-ios-settings" data-name="Icon ionic-ios-settings" d="M21.922,13.995a2.444,2.444,0,0,1,1.568-2.28,9.686,9.686,0,0,0-1.172-2.824,2.476,2.476,0,0,1-.994.213,2.438,2.438,0,0,1-2.23-3.432A9.657,9.657,0,0,0,16.275,4.5a2.442,2.442,0,0,1-4.56,0A9.686,9.686,0,0,0,8.891,5.672,2.438,2.438,0,0,1,6.661,9.1a2.4,2.4,0,0,1-.994-.213A9.9,9.9,0,0,0,4.5,11.72a2.443,2.443,0,0,1,0,4.56A9.686,9.686,0,0,0,5.677,19.1,2.439,2.439,0,0,1,8.9,22.323a9.743,9.743,0,0,0,2.824,1.172,2.437,2.437,0,0,1,4.55,0,9.686,9.686,0,0,0,2.824-1.172A2.442,2.442,0,0,1,22.313,19.1a9.743,9.743,0,0,0,1.172-2.824A2.455,2.455,0,0,1,21.922,13.995ZM14.04,17.946A3.956,3.956,0,1,1,18,13.99,3.955,3.955,0,0,1,14.04,17.946Z" transform="translate(-4.5 -4.5)" fill="#9a9a9a"/>
</svg>
