<?xml version="1.0" encoding="utf-8"?>
<!-- Generator: Adobe Illustrator 27.9.0, SVG Export Plug-In . SVG Version: 6.00 Build 0)  -->
<svg version="1.1" id="Layer_1" xmlns="http://www.w3.org/2000/svg" xmlns:xlink="http://www.w3.org/1999/xlink" x="0px" y="0px"
	 viewBox="0 0 181 181" style="enable-background:new 0 0 181 181;" xml:space="preserve">
<style type="text/css">
	.st0{fill:#0F238C;}
</style>
<g id="Page-1">
	<g id="Group-2">
		<g id="Group" transform="translate(52.500000, 52.500000)">
			<path id="Shape" class="st0" d="M100.4,37.5h-41c-2.3,0-4.1-1.8-4.1-4V1.4c0-2.2,1.8-4,4.1-4h41c2.3,0,4.1,1.8,4.1,4v32.2
				C104.5,35.7,102.7,37.5,100.4,37.5z M63.5,29.5h32.8V5.3H63.5V29.5z"/>
			<path id="Shape_00000176010145172976597390000015667546406041034665_" class="st0" d="M94,3.2c-2.5,0-4.4-2-4.4-4.4v-10.3
				c0-4.9-4-9-9-9s-9,4-9,9v10.3c0,2.5-2,4.4-4.4,4.4s-4.4-2-4.4-4.4v-10.3c0-9.9,8-17.9,17.8-17.9s17.8,8,17.8,17.8v10.3
				C98.5,1.2,96.5,3.2,94,3.2z"/>
			<path id="Shape_00000149373953173809144610000001589121187687767708_" class="st0" d="M-8.9,104.5c-0.6,0-1.1-0.2-1.8-0.4
				c-1.5-0.7-2.4-2.1-2.4-3.8V79.8c-9,0-16.5-7.4-16.5-16.5V13.8c0-9,7.4-16.5,16.5-16.5h53.6c2.3,0,4.1,1.8,4.1,4.1
				s-1.8,4.1-4.1,4.1H-13c-4.5,0-8.3,3.7-8.3,8.3v49.5c0,4.5,3.7,8.3,8.3,8.3h4.1c2.3,0,4.1,1.8,4.1,4.1v15.8l22.1-18.9
				c0.8-0.6,1.7-1,2.7-1h41.2c4.5,0,8.3-3.7,8.3-8.3V50.9c0-2.3,1.8-4.1,4.1-4.1s4.1,1.8,4.1,4.1v12.4c0,9.1-7.4,16.5-16.5,16.5
				H21.5l-27.7,23.7C-7,104.2-7.9,104.5-8.9,104.5z"/>
		</g>
	</g>
</g>
</svg>
