<?xml version="1.0" encoding="UTF-8"?>
<svg width="22px" height="22px" viewBox="0 0 22 22" version="1.1" xmlns="http://www.w3.org/2000/svg" xmlns:xlink="http://www.w3.org/1999/xlink">
    <!-- Generator: Sketch 50.2 (55047) - http://www.bohemiancoding.com/sketch -->
    <title>Question</title>
    <desc>Created with Sketch.</desc>
    <defs></defs>
    <g id="mobile-messaging-field" stroke="none" stroke-width="1" fill="none" fill-rule="evenodd">
        <g id="3.b.-multiline-text---expand-copy-2" transform="translate(-326.000000, -58.000000)" fill="#878787">
            <path d="M337,58 C330.924989,58 326,62.9249475 326,68.9999313 C326,75.0753413 330.925003,79.9999313 337,79.9999313 C343.075376,79.9999313 348,75.0753206 348,68.9999313 C348,62.9249269 343.075362,58 337,58 L337,58 L337,58 Z M337,59.375 C342.307307,59.375 346.625069,63.6927063 346.625069,69.0000687 C346.625069,74.3074106 342.307335,78.6465875 337,78.6465875 C331.692693,78.6465875 327.375,74.3074175 327.375,69.0000687 C327.375,63.6927269 331.692658,59.375 337,59.375 L337,59.375 Z M337.718437,75.1978125 L335.988969,75.1978125 L335.988969,73.4522087 L337.718437,73.4522087 L337.718437,75.1978125 L337.718437,75.1978125 Z M336.006356,71.756875 C336.011741,70.9458519 336.081592,70.3836144 336.215837,70.0700456 C336.350155,69.7568117 336.702584,69.342925 337.273342,68.8280219 C337.827138,68.1733376 338.221907,67.6697975 338.456908,67.3173919 C338.69191,66.9648783 338.808746,66.5398569 338.808746,66.0417356 C338.808746,65.4488666 338.650972,64.9926244 338.33476,64.6737825 C338.018474,64.3548306 337.566692,64.1954111 336.979849,64.1954111 C336.470309,64.1954111 336.036599,64.3340035 335.678707,64.6107051 C335.320893,64.8879642 335.141654,65.6600776 335.141654,66.1972213 L333.563911,66.1972213 L333.538316,66.1468038 C333.522236,65.2461926 333.839112,64.1591038 334.491081,63.6163157 C335.142979,63.0738645 335.972863,62.802247 336.979844,62.802247 C338.081611,62.802247 338.937673,63.0832557 339.547306,63.6459057 C340.157603,64.2078112 340.462307,64.992622 340.462307,65.999782 C340.462307,66.7214782 340.264923,67.3818082 339.870893,67.9804282 C339.476126,68.5792002 338.954415,69.1918926 338.305174,69.8182876 C338.00305,70.120384 337.819829,70.3919623 337.756025,70.6323563 C337.691558,70.873046 337.659325,71.2480208 337.659325,71.7568726 L336.006348,71.7568726 L336.006356,71.756875 Z" id="Question"></path>
        </g>
    </g>
</svg>