<svg xmlns="http://www.w3.org/2000/svg" width="272.231" height="37.443" viewBox="0 0 272.231 37.443">
  <g id="AMS_full_color" transform="translate(0 -3)">
    <path id="Path_1" data-name="Path 1" d="M23.1,35.2l-1.784-4.915H8.875L7.046,35.2H0L11.22,6.187h7.742L30.138,35.2ZM15.092,12.37,10.57,24.858h9.055Z" transform="translate(0 4.701)" fill="#0f238c"/>
    <path id="Path_2" data-name="Path 2" d="M38.505,35.2V14.894l-8.18,20.32H27.633l-8.18-20.32v20.32H13.271V6.187h8.662l7.047,17.526L36.026,6.187h8.7V35.2Z" transform="translate(19.572 4.701)" fill="#0f238c"/>
    <path id="Path_3" data-name="Path 3" d="M27.548,31.38l3.355-4.7a12.712,12.712,0,0,0,9.223,3.916c3.389,0,5.049-1.571,5.049-3.22,0-5.139-16.707-1.6-16.707-12.533,0-4.825,4.174-8.831,11.007-8.831a16.118,16.118,0,0,1,11.31,4.051l-3.434,4.522a12.456,12.456,0,0,0-8.438-3.175c-2.659,0-4.129,1.178-4.129,2.917,0,4.612,16.663,1.526,16.663,12.354,0,5.307-3.781,9.313-11.613,9.313C34.246,35.992,30.24,34.118,27.548,31.38Z" transform="translate(40.628 4.44)" fill="#0f238c"/>
    <path id="Path_4" data-name="Path 4" d="M52.175,22.047c0-6.654,4.915-12.836,11.568-12.836,5.655,0,9.268,3.658,9.268,9.223,0,6.654-4.915,12.836-11.568,12.836C55.788,31.271,52.175,27.613,52.175,22.047Zm18.357-3.523c0-4.4-2.525-7.26-6.833-7.26-5.262,0-9.044,5.262-9.044,10.7,0,4.4,2.525,7.26,6.833,7.26C66.751,29.229,70.532,23.955,70.532,18.524Z" transform="translate(76.95 9.161)" fill="#0f238c"/>
    <path id="Path_5" data-name="Path 5" d="M76.079,30.743l3.13-14.272a7.189,7.189,0,0,0,.258-1.526c0-2.614-2-3.7-4.567-3.7-2.738,0-5.442,1.784-7.26,3.658L64.162,30.732H61.9L66.552,9.716h2.267l-.7,3.2c1.874-1.829,4.612-3.7,7.574-3.7,3.568,0,6.138,1.694,6.138,5.139a9.9,9.9,0,0,1-.258,1.784l-3.22,14.62H76.079Z" transform="translate(91.286 9.161)" fill="#0f238c"/>
    <path id="Path_6" data-name="Path 6" d="M85.677,30.743l3.131-14.272a7.205,7.205,0,0,0,.258-1.526c0-2.614-2-3.7-4.567-3.7-2.738,0-5.442,1.784-7.26,3.658L73.761,30.732H71.494L76.151,9.716h2.266l-.7,3.2c1.874-1.829,4.612-3.7,7.574-3.7,3.568,0,6.138,1.694,6.138,5.139a9.908,9.908,0,0,1-.258,1.784l-3.22,14.62H85.677Z" transform="translate(105.441 9.161)" fill="#0f238c"/>
    <path id="Path_7" data-name="Path 7" d="M81.324,22c0-7,5.139-12.791,11.658-12.791,5.61,0,8.92,3.961,8.92,9.089a13,13,0,0,1-.348,2.659H83.8a9.063,9.063,0,0,0-.09,1.212c0,3.871,2.569,7.136,7.7,7.136a10.132,10.132,0,0,0,6.351-2.266l.875,1.649a12.47,12.47,0,0,1-7.3,2.57C85.026,31.271,81.324,27.489,81.324,22ZM99.68,19.175a6.451,6.451,0,0,0,.045-.954c0-4.084-2.48-7.047-7-7.047-4.219,0-7.967,3.692-8.7,8Z" transform="translate(119.938 9.161)" fill="#0f238c"/>
    <path id="Path_8" data-name="Path 8" d="M91.434,21.958c0-6.923,5.094-12.746,11.658-12.746,3.613,0,6.093,1.391,7.529,3.826l-1.739,1.3a6.288,6.288,0,0,0-5.7-3.086c-5.79,0-9.358,5.217-9.358,10.749,0,4.78,3.086,7.226,7.181,7.226a7.4,7.4,0,0,0,5.7-2.693l1.3,1.571a9.45,9.45,0,0,1-7.226,3.175C95.384,31.271,91.434,27.916,91.434,21.958Z" transform="translate(134.849 9.161)" fill="#0f238c"/>
    <path id="Path_9" data-name="Path 9" d="M100.541,30.857a7.381,7.381,0,0,1,.134-1.133l3.311-14.878h-3.48l.438-2h3.477L105.678,7.1h2.3l-1.257,5.745h4.264l-.483,2H106.24l-3.22,14.575a4.472,4.472,0,0,0-.092.909,1.873,1.873,0,0,0,2.133,2,4.021,4.021,0,0,0,2.222-.785l.436,1.829a4.814,4.814,0,0,1-3.007,1C102.11,34.38,100.541,33.292,100.541,30.857Z" transform="translate(148.229 6.051)" fill="#0f238c"/>
    <path id="Path_10" data-name="Path 10" d="M108.162,6.831v4.926h-.708V6.831h-1.571V6.169h3.861v.662Zm7.2,4.926V7.134l-1.906,4.623h-.2l-1.908-4.623v4.623h-.705V6.169h1.086l1.628,4.062,1.626-4.062h1.089v5.577h-.708Z" transform="translate(156.159 4.674)" fill="#0f238c"/>
    <path id="Path_11" data-name="Path 11" d="M42.737,21.263c.527-8.045,11.288-19.277,23.08-11.108-7.843-7.361-17.841-4.488-23.563,1.964-3.882,4.8-1.01,15.608,4.735,17.235C44.05,28.209,42.479,24.943,42.737,21.263Z" transform="translate(59.694 4.133)" fill="#ce0e2d" fill-rule="evenodd"/>
    <path id="Path_12" data-name="Path 12" d="M80.979,6.745,76.042,23.576l-1.706-1.784a54.445,54.445,0,0,1-9.47,8.146A21.359,21.359,0,0,1,58.4,25.651a43.506,43.506,0,0,0,9.818-10.244l-2.5-2.6Q80.984,6.745,80.979,6.745ZM40.294,27.054c2.21,5.8,8.988,9.807,18.57,6.048a19.855,19.855,0,0,1-4.051-5.464c-10.805,4.286-16.348-11.77-9.268-18.57C40.551,13.545,37.791,20.569,40.294,27.054Z" transform="translate(58.043 5.523)" fill="#0f238c" fill-rule="evenodd"/>
    <path id="Path_13" data-name="Path 13" d="M56.338,18.4a32.079,32.079,0,0,1-6.9,3.68,18.118,18.118,0,0,1-3.927-5.52,17.814,17.814,0,0,0,4.073-2.244A14.955,14.955,0,0,0,56.338,18.4Z" transform="translate(67.12 16.683)" fill="#0f238c" fill-rule="evenodd"/>
    <path id="Path_14" data-name="Path 14" d="M65.051,4.122,63.9,8l2.412,3.276-3.9-.034L60.227,14.6l-1.246-3.916L55.222,9.474,58.353,7.1,58.218,3l3.175,2.446Z" transform="translate(81.443)" fill="#ce0e2d" fill-rule="evenodd"/>
  </g>
</svg>
