<svg width="16" height="14" viewBox="0 0 16 14" fill="none" xmlns="http://www.w3.org/2000/svg">
<g id="Icon-Pager">
<path id="Vector" d="M7.75027 4.13C8.56027 4.13 9.22027 4.79 9.22027 5.61C9.22027 6.34 8.69027 6.94 7.99027 7.05L8.75027 11.62H6.75027L7.51027 7.05C6.81027 6.93 6.28027 6.33 6.28027 5.6C6.28027 4.79 6.94027 4.13 7.75027 4.13ZM7.75027 3.13C6.39027 3.13 5.28027 4.24 5.28027 5.59C5.28027 6.45 5.71027 7.22 6.39027 7.66L5.76027 11.45L5.57027 12.61H9.93027L9.74027 11.45L9.11027 7.66C9.79027 7.22 10.2203 6.46 10.2203 5.6C10.2203 4.24 9.12027 3.13 7.76027 3.12L7.75027 3.13Z" fill="#0F238C"/>
<path id="Vector_2" d="M3.41016 5.59995C3.41016 4.74995 3.76016 3.96995 4.32016 3.40995L3.61016 2.69995C2.87016 3.43995 2.41016 4.45995 2.41016 5.58995C2.41016 6.71995 2.87016 7.73995 3.61016 8.47995L4.32016 7.76995C3.76016 7.20995 3.41016 6.43995 3.41016 5.57995V5.59995Z" fill="#0F238C"/>
<path id="Vector_3" d="M1 5.6C1 4.08 1.62 2.71 2.61 1.71L1.9 1C0.73 2.18 0 3.8 0 5.6C0 7.4 0.73 9.02 1.91 10.2L2.62 9.49C1.62 8.49 1.01 7.12 1.01 5.6H1Z" fill="#0F238C"/>
<path id="Vector_4" d="M12.0799 5.59995C12.0799 4.74995 11.7299 3.96995 11.1699 3.40995L11.8799 2.69995C12.6199 3.43995 13.0799 4.45995 13.0799 5.58995C13.0799 6.71995 12.6199 7.73995 11.8799 8.47995L11.1699 7.76995C11.7299 7.20995 12.0799 6.43995 12.0799 5.57995V5.59995Z" fill="#0F238C"/>
<path id="Vector_5" d="M14.4999 5.6C14.4999 4.08 13.8799 2.71 12.8899 1.71L13.5899 1C14.7699 2.18 15.4999 3.8 15.4999 5.6C15.4999 7.4 14.7699 9.02 13.5899 10.2L12.8799 9.49C13.8799 8.49 14.4899 7.12 14.4899 5.6H14.4999Z" fill="#0F238C"/>
</g>
</svg>
