<svg width="16" height="16" viewBox="0 0 16 16" fill="none" xmlns="http://www.w3.org/2000/svg">
<g clip-path="url(#clip0_458_31179)">
<path d="M14.4 6.55C14.4 6.55 13.47 6.39 13.2 6.35C13.08 6.33 12.98 6.23 12.92 6.13C12.83 5.84 12.71 5.56 12.57 5.29C12.55 5.18 12.55 5.05 12.62 4.95C12.81 4.68 13.33 3.99 13.33 3.99C13.56 3.69 13.53 3.26 13.26 2.99L12.58 2.31C12.32 2.05 11.9 2.01 11.6 2.23C11.6 2.23 10.83 2.78 10.61 2.93C10.51 3 10.37 3 10.25 2.97C9.98002 2.83 9.70002 2.72 9.41002 2.62C9.31002 2.55 9.21002 2.46 9.19002 2.34C9.15002 2.08 8.99002 1.14 8.99002 1.14C8.93002 0.77 8.61002 0.5 8.24002 0.5H7.28002C6.90002 0.5 6.58002 0.78 6.52002 1.15C6.52002 1.15 6.40002 2.01 6.35002 2.33C6.33002 2.45 6.24002 2.54 6.15002 2.61C5.86002 2.7 5.57002 2.82 5.31002 2.96C5.19002 2.99 5.05002 2.99 4.95002 2.92C4.73002 2.76 3.96002 2.22 3.96002 2.22C3.66002 2 3.24002 2.04 2.98002 2.3L2.30002 2.98C2.03002 3.25 2.00002 3.67 2.23002 3.98C2.23002 3.98 2.75002 4.68 2.94002 4.94C3.01002 5.04 3.01002 5.17 2.99002 5.28C2.85002 5.55 2.73002 5.83 2.64002 6.12C2.57002 6.22 2.48002 6.32 2.36002 6.34C2.10002 6.38 1.16002 6.54 1.16002 6.54C0.79002 6.6 0.52002 6.92 0.52002 7.29V8.25C0.52002 8.63 0.80002 8.95 1.17002 9.01C1.17002 9.01 2.03002 9.13 2.35002 9.18C2.47002 9.2 2.56002 9.29 2.63002 9.38C2.72002 9.67 2.84002 9.96 2.98002 10.22C3.01002 10.34 3.01002 10.48 2.94002 10.58C2.78002 10.8 2.24002 11.57 2.24002 11.57C2.02002 11.87 2.06002 12.29 2.32002 12.55L3.00002 13.23C3.27002 13.5 3.69002 13.53 4.00002 13.3C4.00002 13.3 4.70002 12.78 4.96002 12.59C5.06002 12.52 5.19002 12.52 5.30002 12.54C5.57002 12.68 5.86002 12.8 6.15002 12.89C6.24002 12.95 6.34002 13.05 6.35002 13.17C6.40002 13.5 6.52002 14.35 6.52002 14.35C6.58002 14.72 6.90002 15 7.28002 15H8.24002C8.61002 15 8.93002 14.73 8.99002 14.36C8.99002 14.36 9.15002 13.43 9.19002 13.16C9.21002 13.04 9.31002 12.94 9.41002 12.88C9.70002 12.79 9.98002 12.67 10.25 12.53C10.36 12.51 10.49 12.51 10.59 12.58C10.86 12.77 11.55 13.29 11.55 13.29C11.85 13.52 12.28 13.49 12.55 13.22L13.23 12.54C13.49 12.28 13.53 11.86 13.31 11.56C13.31 11.56 12.76 10.79 12.61 10.57C12.54 10.47 12.54 10.33 12.57 10.21C12.71 9.94 12.83 9.66 12.92 9.37C12.98 9.28 13.08 9.18 13.2 9.17C13.53 9.12 14.38 9 14.38 9C14.75 8.94 15.03 8.62 15.03 8.24V7.28C15.03 6.91 14.76 6.59 14.39 6.53L14.4 6.55Z" stroke="#0F238C" stroke-miterlimit="10"/>
<path d="M7.77001 10.2798C6.38001 10.2798 5.26001 9.15977 5.26001 7.76977C5.26001 6.37977 6.38001 5.25977 7.77001 5.25977C9.16001 5.25977 10.28 6.37977 10.28 7.76977C10.28 9.15977 9.16001 10.2798 7.77001 10.2798Z" stroke="#0F238C" stroke-miterlimit="10"/>
</g>
<defs>
<clipPath id="clip0_458_31179">
<rect width="15.53" height="15.53" fill="white"/>
</clipPath>
</defs>
</svg>
