<svg width="18" height="16" viewBox="0 0 18 16" fill="none" xmlns="http://www.w3.org/2000/svg">
<path d="M17.4099 7.81356L14.9202 10.8229C14.7287 11.059 14.3631 11.059 14.1716 10.8229L11.6472 7.8398C11.3773 7.52488 11.6036 7.02624 12.0215 7.02624L17.0356 7C17.4534 7 17.6797 7.48989 17.4186 7.80481L17.4099 7.81356Z" fill="#0F238C"/>
<path d="M6.53003 2.78881C7.30768 2.29231 8.20154 2.00998 9.15796 2.00024C12.0809 1.97104 14.5032 4.57039 14.53 7.75387C14.53 8.17249 14.4943 8.59111 14.4138 9" stroke="#0F238C" stroke-width="1.5" stroke-miterlimit="10" stroke-linecap="round"/>
<path d="M0.654916 8.08863L3.22409 5.16395C3.4244 4.9383 3.78147 4.94698 3.97307 5.1813L6.42032 8.20145C6.68159 8.52256 6.44645 9.00856 6.02841 8.99989L1.01199 8.89574C0.593953 8.89574 0.376226 8.40106 0.654916 8.08863Z" fill="#0F238C"/>
<path d="M11.53 13.2924C10.7319 13.7603 9.81594 14.0181 8.84553 13.999C5.87988 13.9417 3.47652 11.335 3.53094 8.21265C3.53094 7.80207 3.58535 7.39149 3.67604 7" stroke="#0F238C" stroke-width="1.5" stroke-miterlimit="10" stroke-linecap="round"/>
</svg>
