<svg width="16" height="14" viewBox="0 0 16 14" fill="none" xmlns="http://www.w3.org/2000/svg" >
<g id="Icon-Email">
<path id="Vector" d="M14.63 3.06C14.75 3.06 14.84 3.16 14.84 3.27V11.71C14.84 11.83 14.74 11.92 14.63 11.92H1.27C1.15 11.92 1.06 11.82 1.06 11.71V3.27C1.06 3.15 1.16 3.06 1.27 3.06H14.63ZM14.63 2H1.27C0.57 2 0 2.57 0 3.27V11.71C0 12.41 0.57 12.98 1.27 12.98H14.63C15.33 12.98 15.9 12.41 15.9 11.71V3.27C15.9 2.57 15.33 2 14.63 2Z" fill="#0F238C"/>
<path id="Vector_2" d="M7.76 4.10999L7.75 4.12999H7.78L7.76 4.10999Z" fill="#0F238C"/>
<path id="Vector_3" d="M14.0796 4.56001L13.6096 4.05001L7.79957 8.34001L2.32957 4.01001L1.80957 4.55001L4.86957 7.49001L2.09957 10.73L2.61957 11.27L5.69957 8.30001L7.36957 9.90001L7.76957 10.28L8.16957 9.92001L9.97957 8.28001L13.2896 11.28L13.7596 10.76L10.8196 7.51001L14.0796 4.56001Z" fill="#0F238C"/>
</g>
</svg>
