<svg width="16" height="14" viewBox="0 0 16 14" fill="none" xmlns="http://www.w3.org/2000/svg">
<g id="Icon-Phone">
<path id="Vector" d="M11.2649 13.2132C10.5375 13.4384 8.18932 12.1773 5.15326 9.49013C4.00684 8.4768 2.53625 6.86298 1.76142 5.73706C1.22379 4.94892 1.23169 4.95643 1.18426 4.74625C1.13682 4.53608 0.978689 4.39347 1.00241 4.10073C1.01822 3.92809 1.66655 2.90725 2.06186 2.32178C2.33068 1.91644 2.58369 1.48109 2.93947 1.30094C3.2241 1.15833 3.5957 0.925636 3.9594 1.02322C4.23612 1.09828 4.48913 1.41353 4.82119 1.89393C5.18489 2.42686 5.45371 2.97481 5.61974 3.43268C5.8174 3.97312 5.95181 4.32591 5.53277 4.61114C4.9477 5.01648 4.86073 4.9189 4.75004 5.00146C4.63935 5.08403 4.60772 5.21914 4.584 5.37677C4.56028 5.5344 4.64725 5.81963 5.11373 6.29252C5.58021 6.7654 6.3076 7.45597 6.63966 7.75621C6.97173 8.05646 8.5451 9.43008 8.9088 9.7078C9.27249 9.98553 9.58875 9.948 9.62828 9.94049C9.66781 9.93299 9.905 9.87294 10.0157 9.71531C10.1264 9.55768 10.2134 9.0848 10.5691 8.88964C10.9249 8.69448 11.0989 8.70949 12.435 9.19739C13.7712 9.68529 14.1191 10.1657 14.214 10.2783C14.3089 10.3909 14.2061 11.3516 13.5419 11.8546C13.3917 11.9747 13.202 12.0347 13.0359 12.1323C12.5062 12.4475 11.5416 13.1306 11.2649 13.2207V13.2132Z" stroke="#0F238C"/>
</g>
</svg>
