<svg width="12" height="10" viewBox="0 0.67 12 10" fill="none" xmlns="http://www.w3.org/2000/svg">
<path d="M11.9562 5.53426L10.1928 7.66576C10.0572 7.83306 9.7982 7.83306 9.66255 7.66576L7.87447 5.55285C7.68332 5.32978 7.84364 4.9766 8.1396 4.9766L11.6911 4.95801C11.9871 4.95801 12.1474 5.305 11.9624 5.52806L11.9562 5.53426Z" fill="#0F238C"/>
<path d="M4.25 1.97522C4.80082 1.62355 5.43394 1.42357 6.11138 1.41668C8.18169 1.39599 9.89746 3.23713 9.91645 5.49201C9.91645 5.78852 9.89113 6.08503 9.83415 6.37465" stroke="#0F238C" stroke-width="1.5" stroke-miterlimit="10" stroke-linecap="round"/>
<path d="M0.0884583 5.7292L1.90822 3.65763C2.0501 3.4978 2.30302 3.50395 2.43873 3.66992L4.17213 5.80911C4.35719 6.03656 4.19064 6.3808 3.89454 6.37465L0.341375 6.30088C0.0452775 6.30088 -0.10894 5.9505 0.0884583 5.7292Z" fill="#0F238C"/>
<path d="M7.79145 9.41497C7.22616 9.74637 6.57735 9.92898 5.89 9.91545C3.78941 9.87487 2.0871 8.02851 2.12564 5.81694C2.12564 5.52612 2.16418 5.2353 2.22842 4.95801" stroke="#0F238C" stroke-width="1.5" stroke-miterlimit="10" stroke-linecap="round"/>
</svg>
