<svg width="14" height="13" viewBox="0 0 14 13" fill="none" xmlns="http://www.w3.org/2000/svg">
<path d="M9.73797 8.00537L12.2055 7.16817C12.3347 7.11983 12.4775 7.20578 12.4976 7.34504L12.6254 8.22697C12.6455 8.36622 12.538 8.4825 12.3954 8.47946L9.79175 8.37671L9.73797 8.00537Z" fill="#0F238C"/>
<path d="M8.96915 9.03531L8.8664 11.6389C8.85672 11.7766 8.97964 11.8891 9.1189 11.8689L10.0008 11.7412C10.1401 11.721 10.2211 11.5849 10.1777 11.449L9.34049 8.98153L8.96915 9.03531Z" fill="#0F238C"/>
<path d="M4.12534 3.8129L4.22809 1.20928C4.23777 1.07163 4.11484 0.959109 3.97559 0.979277L3.09366 1.10701C2.95441 1.12718 2.87342 1.26331 2.9168 1.3992L3.754 3.86668L4.12534 3.8129Z" fill="#0F238C"/>
<path d="M3.35603 4.84235L0.888547 5.67955C0.759299 5.72789 0.616525 5.64194 0.596357 5.50269L0.468627 4.62076C0.448459 4.4815 0.556019 4.36522 0.698632 4.36826L3.30225 4.47101L3.35603 4.84235Z" fill="#0F238C"/>
<path d="M9.83745 5.97507L11.0519 4.3493C11.7511 3.41324 11.5244 2.0542 10.548 1.32481C9.56487 0.590459 8.204 0.763622 7.50479 1.69967L6.29036 3.32545" stroke="#0F238C" stroke-width="1.5" stroke-miterlimit="10" stroke-linecap="round"/>
<path d="M4.24756 6.04639L3.14107 7.52766C2.38687 8.53732 2.5687 9.95642 3.54515 10.6858C4.52824 11.4202 5.93397 11.1869 6.68816 10.1773L7.79465 8.69601" stroke="#0F238C" stroke-width="1.5" stroke-miterlimit="10" stroke-linecap="round"/>
</svg>
